<?xml version="1.0" standalone="no"?>
<!DOCTYPE svg PUBLIC "-//W3C//DTD SVG 20010904//EN"
 "http://www.w3.org/TR/2001/REC-SVG-20010904/DTD/svg10.dtd">
<svg version="1.0" xmlns="http://www.w3.org/2000/svg"
 width="512.000000pt" height="512.000000pt" viewBox="0 0 512.000000 512.000000"
 preserveAspectRatio="xMidYMid meet">

<g transform="translate(0.000000,512.000000) scale(0.100000,-0.100000)"
fill="#fff" stroke="none">
<path d="M1615 3181 c-72 -32 -125 -113 -125 -191 0 -83 0 -83 483 -569 310
-310 475 -469 502 -482 49 -23 113 -24 163 -4 46 19 934 902 963 957 12 23 19
57 19 90 -1 162 -161 262 -305 191 -16 -8 -193 -178 -392 -376 l-363 -362
-367 367 c-248 248 -380 372 -405 383 -50 20 -124 19 -173 -4z"/>
</g>
</svg>
